<?xml version="1.0" standalone="no"?>
<!DOCTYPE svg PUBLIC "-//W3C//DTD SVG 20010904//EN"
 "http://www.w3.org/TR/2001/REC-SVG-20010904/DTD/svg10.dtd">
<svg version="1.0" xmlns="http://www.w3.org/2000/svg"
 width="1024.000000pt" height="1024.000000pt" viewBox="0 0 1024.000000 1024.000000"
 preserveAspectRatio="xMidYMid meet">
<metadata>
Created by potrace 1.14, written by Peter Selinger 2001-2017
</metadata>
<g transform="translate(0.000000,1024.000000) scale(0.100000,-0.100000)"
fill="#000000" stroke="none">
<path d="M2550 9740 c0 -13 60 -13 80 0 11 7 2 10 -32 10 -27 0 -48 -4 -48
-10z"/>
<path d="M2816 9743 c-21 -21 -253 -29 -334 -11 -4 1 -19 -5 -34 -12 -22 -11
-33 -11 -55 -1 -21 10 -28 9 -35 -1 -6 -11 -10 -10 -17 1 -6 9 -11 10 -15 2
-4 -6 -26 -10 -49 -9 -23 1 -58 -2 -77 -6 -19 -5 -45 -10 -56 -11 -12 -2 -30
-7 -40 -12 -25 -12 -43 -11 -52 4 -4 7 -16 10 -27 8 -11 -2 -22 -4 -26 -4 -3
-1 -22 -16 -42 -35 -20 -19 -43 -33 -50 -33 -20 2 -97 -25 -97 -35 0 -4 -9 -8
-19 -8 -11 0 -21 -6 -24 -12 -3 -8 -8 -4 -14 9 l-8 23 -63 -32 c-58 -29 -77
-48 -51 -48 6 0 1 -9 -12 -19 -18 -14 -27 -16 -37 -9 -9 8 -20 7 -37 -2 -22
-12 -23 -14 -8 -25 15 -11 14 -13 -7 -20 -13 -4 -32 -17 -42 -29 -20 -24 -24
-15 -7 17 l12 21 -29 -18 c-81 -53 -146 -112 -151 -138 -3 -15 -14 -30 -24
-33 -11 -4 -19 -13 -19 -21 0 -8 -5 -14 -10 -14 -6 0 -27 -16 -47 -35 -20 -19
-40 -35 -45 -35 -4 0 -8 -8 -8 -18 0 -10 -18 -35 -40 -55 -22 -19 -40 -43 -40
-51 0 -9 -4 -16 -9 -16 -5 0 -14 -13 -21 -30 -7 -16 -16 -27 -21 -24 -5 3 -9
-1 -9 -9 0 -8 -9 -22 -20 -32 -11 -10 -20 -24 -20 -31 0 -7 -7 -17 -17 -22 -9
-5 -17 -19 -18 -32 -1 -12 -8 -26 -16 -31 -8 -5 -10 -9 -5 -9 5 0 1 -9 -8 -19
-10 -11 -18 -26 -20 -34 -1 -8 -7 -21 -12 -28 -15 -19 -28 -52 -25 -65 1 -7
-5 -14 -13 -17 -9 -4 -12 -14 -9 -27 4 -15 -1 -26 -15 -36 -13 -8 -19 -21 -15
-30 3 -8 -2 -23 -12 -34 -9 -10 -14 -23 -11 -28 3 -4 -1 -20 -9 -35 -8 -15
-10 -27 -4 -27 5 0 9 -5 9 -11 0 -5 -4 -8 -9 -4 -10 6 -16 -9 -26 -67 -3 -21
-10 -38 -15 -38 -5 0 -9 -24 -9 -53 1 -29 -4 -71 -10 -93 -6 -22 -10 -60 -9
-85 2 -65 -1 -81 -12 -74 -6 4 -10 -17 -10 -54 0 -34 3 -60 7 -59 5 2 8 -1 8
-7 0 -5 -4 -9 -9 -7 -5 2 -5 -5 -1 -15 4 -10 9 -31 11 -48 l3 -30 -9 30 c-4
17 -7 -589 -5 -1400 1 -786 3 -1434 3 -1440 0 -5 -2 -881 -5 -1945 -3 -1064
-1 -2035 2 -2158 l7 -222 4434 0 4434 0 -3 1992 c-2 1096 -6 2023 -9 2060 -3
38 -2 65 3 62 5 -3 8 734 7 1753 l-3 1758 -2 -1652 -3 -1653 -163 2 -162 2
158 3 157 4 -1 640 c-1 359 -6 642 -11 645 -5 3 -5 11 1 17 8 11 8 45 0 72 -2
6 1 20 5 33 5 14 3 28 -4 37 -9 11 -9 15 -1 15 11 0 8 87 -4 98 -3 3 0 11 6
18 7 8 7 19 1 31 -6 11 -7 36 -3 60 5 23 6 81 3 130 -5 103 -5 115 -4 168 1
22 1 100 1 172 0 73 2 137 6 142 3 5 1 12 -4 15 -5 3 -8 82 -7 176 2 147 0
170 -14 170 -13 0 -13 2 -1 9 8 5 14 23 14 40 0 16 5 28 10 24 5 -3 1 7 -9 22
-11 16 -14 29 -7 33 11 8 11 52 0 70 -5 6 -5 17 -2 22 4 6 6 61 5 123 -1 62
-2 169 -3 240 -1 70 -4 127 -8 127 -3 0 -7 30 -8 68 -1 37 -6 69 -11 70 -6 2
-10 12 -10 23 0 10 -4 19 -9 19 -5 0 -9 10 -10 23 -1 41 -7 77 -14 83 -4 4 -4
16 -1 28 3 13 -3 29 -16 43 -11 12 -20 26 -20 32 0 5 -11 33 -25 63 -13 29
-22 61 -19 71 3 9 0 17 -6 17 -6 0 -15 10 -20 23 -12 26 -31 56 -88 137 -23
34 -40 65 -37 71 4 5 -2 6 -11 2 -14 -5 -16 -3 -11 11 4 10 3 15 -3 11 -6 -3
-14 5 -20 19 -5 14 -16 26 -25 26 -8 0 -15 8 -15 18 0 9 -12 28 -25 41 -14 13
-25 27 -25 32 0 5 -7 9 -15 9 -8 0 -15 7 -15 15 0 8 -5 15 -11 15 -7 0 -22 10
-34 23 -12 12 -45 38 -73 57 -29 19 -52 41 -52 48 0 6 -6 12 -14 12 -8 0 -16
7 -20 15 -3 8 -15 15 -26 15 -11 0 -20 4 -20 10 0 5 -3 9 -7 9 -22 -4 -42 3
-61 19 -11 9 -30 25 -42 35 -12 10 -28 16 -36 13 -8 -3 -14 -2 -14 3 0 4 -18
14 -40 21 -22 7 -40 17 -40 22 0 4 -7 8 -15 8 -8 0 -15 5 -15 10 0 6 -13 10
-30 10 -16 0 -30 4 -30 9 0 6 -20 9 -45 7 -31 -2 -45 2 -45 10 0 7 -25 18 -57
24 -32 7 -74 16 -93 21 -22 6 -36 5 -38 -1 -2 -6 -9 -7 -15 -3 -22 13 -121 32
-132 24 -5 -4 -21 -4 -35 0 -25 7 -25 7 4 8 24 1 27 3 16 16 -10 12 -37 15
-126 15 -69 0 -114 -4 -114 -10 0 -5 17 -10 38 -11 20 -1 48 -5 62 -9 20 -7
15 -9 -25 -9 -27 0 -57 -1 -65 -1 -8 -1 -44 0 -80 3 -36 2 -72 1 -81 -4 -20
-10 -43 5 -36 25 6 14 -20 16 -265 16 -233 0 -274 -2 -289 -16 -26 -24 -70
-26 -76 -3 -5 17 -16 19 -119 19 -103 0 -114 -2 -124 -20 -6 -11 -19 -20 -30
-20 -11 0 -24 9 -30 20 -11 20 -21 20 -606 20 -557 0 -595 -1 -602 -17 -4 -11
-19 -19 -37 -20 l-30 -2 28 15 c15 8 27 17 27 19 0 3 -30 5 -67 5 -43 0 -63
-4 -54 -9 7 -5 11 -13 8 -17 -5 -9 -39 -9 -144 -1 -29 2 -53 1 -53 -3 0 -7
-310 -3 -342 4 -10 2 -18 -1 -18 -7 0 -9 -2 -9 -8 0 -9 15 -45 12 -55 -5 -7
-11 -13 -10 -34 3 -17 12 -28 13 -37 6 -7 -6 -24 -10 -37 -10 -13 1 -51 1 -83
1 -33 0 -54 3 -47 7 12 8 -42 7 -126 -3 -24 -2 -46 0 -49 5 -3 6 -15 7 -27 3
-27 -9 -90 -9 -104 -1 -5 4 -13 4 -16 1 -3 -4 -25 -7 -48 -8 -33 -2 -43 1 -47
16 -3 14 -14 18 -52 18 -33 0 -50 -5 -54 -15 -6 -17 -61 -21 -71 -5 -4 7 -11
8 -18 1 -18 -14 -187 -9 -187 6 0 10 -79 13 -361 13 -319 0 -363 -2 -373 -16
-9 -12 -21 -14 -49 -9 -20 4 -37 11 -37 16 0 11 -34 12 -44 2z m2895 -17 c-7
-8 -21 -12 -33 -8 -21 5 -21 6 -2 13 33 13 48 11 35 -5z m-1674 -12 c-3 -3
-12 -4 -19 -1 -8 3 -5 6 6 6 11 1 17 -2 13 -5z m2258 -408 c495 -98 880 -479
970 -958 19 -103 20 -175 17 -1050 l-2 -708 -840 0 -840 0 0 525 0 525 -480 0
-480 0 0 -670 0 -670 559 0 c571 0 692 -6 859 -40 580 -120 1010 -543 1177
-1154 49 -179 50 -241 47 -1938 l-3 -1578 -2164 0 -2165 0 0 1365 0 1365 845
0 845 0 0 -525 0 -525 480 0 480 0 0 670 0 670 -560 0 c-605 0 -688 5 -877 50
-596 143 -1038 582 -1167 1161 -45 201 -48 300 -43 1409 3 905 5 1044 20 1106
91 408 327 712 679 879 105 50 247 91 359 104 41 5 551 8 1134 7 975 -2 1067
-3 1150 -20z m-4163 -1007 c15 -8 27 -17 28 -21 0 -4 10 -27 20 -51 69 -155
61 -242 -31 -342 -45 -49 -110 -71 -185 -62 -65 7 -115 46 -195 152 l-71 94
18 53 c23 69 100 147 174 177 44 17 71 20 135 18 44 -2 92 -10 107 -18z m6443
7 c22 -6 40 -16 40 -21 1 -6 8 -24 17 -40 29 -54 58 -153 58 -196 0 -51 -51
-151 -94 -184 -62 -46 -162 -58 -225 -26 -45 23 -108 87 -158 159 -20 28 -40
52 -45 52 -15 0 2 60 30 114 66 123 233 186 377 142z m245 -456 c0 -5 -7 -10
-16 -10 -8 0 -12 5 -9 10 3 6 10 10 16 10 5 0 9 -4 9 -10z m-29 -53 c-8 -8
-11 -7 -11 4 0 9 3 19 7 23 4 4 9 2 11 -4 3 -7 -1 -17 -7 -23z m-8094 -74 c-3
-10 -5 -2 -5 17 0 19 2 27 5 18 2 -10 2 -26 0 -35z m8033 8 c0 -9 -52 -47 -59
-42 -2 1 -7 -3 -12 -11 -5 -7 -13 -13 -19 -13 -6 0 -14 -6 -19 -14 -5 -8 -35
-15 -82 -17 -68 -4 -72 -3 -55 11 11 8 35 15 54 15 36 0 132 41 152 65 14 16
40 20 40 6z m-8028 -83 c-9 -9 -12 -7 -12 12 0 19 3 21 12 12 9 -9 9 -15 0
-24z m1258 2 c12 -8 11 -10 -7 -10 -12 0 -25 5 -28 10 -8 13 15 13 35 0z m70
-4 c0 -2 -11 -6 -25 -8 -14 -3 -25 -1 -25 3 0 5 11 9 25 9 14 0 25 -2 25 -4z
m-1333 -253 c-3 -10 -5 -2 -5 17 0 19 2 27 5 18 2 -10 2 -26 0 -35z m0 -415
c-3 -7 -5 -2 -5 12 0 14 2 19 5 13 2 -7 2 -19 0 -25z m0 -580 c-3 -8 -6 -5 -6
6 -1 11 2 17 5 13 3 -3 4 -12 1 -19z m0 -150 c-3 -7 -5 -2 -5 12 0 14 2 19 5
13 2 -7 2 -19 0 -25z m6736 -1285 c-7 -2 -19 -2 -25 0 -7 3 -2 5 12 5 14 0 19
-2 13 -5z m145 0 c-15 -2 -42 -2 -60 0 -18 2 -6 4 27 4 33 0 48 -2 33 -4z m80
0 c-10 -2 -26 -2 -35 0 -10 3 -2 5 17 5 19 0 27 -2 18 -5z m85 0 c-7 -2 -19
-2 -25 0 -7 3 -2 5 12 5 14 0 19 -2 13 -5z m105 0 c-15 -2 -42 -2 -60 0 -18 2
-6 4 27 4 33 0 48 -2 33 -4z m319 1 c-3 -3 -12 -4 -19 -1 -8 3 -5 6 6 6 11 1
17 -2 13 -5z m90 0 c-3 -3 -12 -4 -19 -1 -8 3 -5 6 6 6 11 1 17 -2 13 -5z
m110 0 c-3 -3 -12 -4 -19 -1 -8 3 -5 6 6 6 11 1 17 -2 13 -5z m86 -1 c-13 -2
-33 -2 -45 0 -13 2 -3 4 22 4 25 0 35 -2 23 -4z m75 0 c-10 -2 -26 -2 -35 0
-10 3 -2 5 17 5 19 0 27 -2 18 -5z m190 0 c-21 -2 -55 -2 -75 0 -21 2 -4 4 37
4 41 0 58 -2 38 -4z m195 0 c-18 -2 -48 -2 -65 0 -18 2 -4 4 32 4 36 0 50 -2
33 -4z m115 0 c-10 -2 -26 -2 -35 0 -10 3 -2 5 17 5 19 0 27 -2 18 -5z m149 0
c-20 -2 -52 -2 -70 0 -17 2 0 4 38 4 39 0 53 -2 32 -4z m86 -210 c-7 -2 -19
-2 -25 0 -7 3 -2 5 12 5 14 0 19 -2 13 -5z m220 0 c-7 -2 -21 -2 -30 0 -10 3
-4 5 12 5 17 0 24 -2 18 -5z m-1075 -2284 c-2 -6 34 -30 79 -53 45 -22 91 -50
104 -61 20 -19 74 -123 67 -131 -2 -2 -22 27 -43 63 -22 36 -43 65 -47 65 -5
-1 -47 -2 -96 -2 l-87 0 -47 -80 -47 -80 35 -62 c19 -33 33 -62 31 -64 -6 -7
-76 96 -122 179 l-43 77 25 38 c32 47 56 68 118 98 55 26 76 30 73 13z m-6472
-8 c5 -6 43 -26 84 -46 93 -46 115 -65 151 -137 39 -78 28 -73 -18 7 l-37 65
-96 0 -95 0 -48 -83 c-36 -60 -46 -86 -39 -97 5 -8 24 -42 42 -75 l33 -60 -34
39 c-19 21 -60 84 -91 139 -65 116 -64 122 12 191 59 53 115 77 136 57z"/>
<path d="M1878 8100 l-46 -79 44 -78 44 -78 95 -5 95 -5 49 82 49 83 -47 80
-46 79 -95 1 -95 0 -47 -80z"/>
<path d="M8343 8105 c-24 -41 -43 -79 -43 -85 0 -6 19 -44 43 -85 l42 -75 88
0 c48 0 90 -1 94 -2 3 -2 28 34 54 80 l47 82 -46 80 -47 80 -95 0 -95 -1 -42
-74z"/>
<path d="M2878 9743 c6 -2 18 -2 25 0 6 3 1 5 -13 5 -14 0 -19 -2 -12 -5z"/>
</g>
</svg>
